<svg width="18" height="18" viewBox="0 0 18 18" fill="none" xmlns="http://www.w3.org/2000/svg">
<path d="M8.99739 1.18945C4.64147 1.18945 1.00392 4.83443 1.00392 9.18749C1.00559 10.7633 1.47123 12.3036 2.34269 13.6163L1 17.1895L5.49176 16.3768C6.58416 16.9076 7.78295 17.1828 8.99739 17.1816C13.3572 17.1842 17 13.5445 17 9.1888C17 4.83835 13.3559 1.18684 8.99739 1.18945Z" stroke="#FAFAFA" stroke-width="1.2754" stroke-linecap="round" stroke-linejoin="round"/>
<path d="M9.43765 12.7108C10.5204 13.4045 11.6476 12.8989 12.4339 12.3123C12.9759 11.9073 12.959 11.1274 12.4953 10.6336L11.581 9.66027C11.2349 10.0065 10.5583 10.1789 10.0894 10.0352C9.07977 9.7282 8.65659 9.20301 8.31308 8.66737C7.91994 8.05334 8.36533 7.13622 8.71145 6.79001L7.69267 5.85983C7.26296 5.46789 6.6112 5.40257 6.23635 5.84676C5.49447 6.726 5.03471 8.06249 5.57937 8.91298C6.55896 10.4402 7.91079 11.731 9.43765 12.7108Z" stroke="#FAFAFA" stroke-width="1.2754" stroke-linecap="round" stroke-linejoin="round"/>
</svg>
