<svg width="36" height="36" viewBox="0 0 36 36" fill="none" xmlns="http://www.w3.org/2000/svg">
<path d="M18 3.00293C16.0302 3.00293 14.0796 3.39092 12.2597 4.14474C10.4399 4.89856 8.78628 6.00345 7.3934 7.39633C4.58035 10.2094 3 14.0247 3 18.0029C3 24.6329 7.305 30.2579 13.26 32.2529C14.01 32.3729 14.25 31.9079 14.25 31.5029V28.9679C10.095 29.8679 9.21 26.9579 9.21 26.9579C8.52 25.2179 7.545 24.7529 7.545 24.7529C6.18 23.8229 7.65 23.8529 7.65 23.8529C9.15 23.9579 9.945 25.3979 9.945 25.3979C11.25 27.6779 13.455 27.0029 14.31 26.6429C14.445 25.6679 14.835 25.0079 15.255 24.6329C11.925 24.2579 8.43 22.9679 8.43 17.2529C8.43 15.5879 9 14.2529 9.975 13.1879C9.825 12.8129 9.3 11.2529 10.125 9.22793C10.125 9.22793 11.385 8.82293 14.25 10.7579C15.435 10.4279 16.725 10.2629 18 10.2629C19.275 10.2629 20.565 10.4279 21.75 10.7579C24.615 8.82293 25.875 9.22793 25.875 9.22793C26.7 11.2529 26.175 12.8129 26.025 13.1879C27 14.2529 27.57 15.5879 27.57 17.2529C27.57 22.9829 24.06 24.2429 20.715 24.6179C21.255 25.0829 21.75 25.9979 21.75 27.3929V31.5029C21.75 31.9079 21.99 32.3879 22.755 32.2529C28.71 30.2429 33 24.6329 33 18.0029C33 16.0331 32.612 14.0826 31.8582 12.2627C31.1044 10.4428 29.9995 8.78921 28.6066 7.39633C27.2137 6.00345 25.5601 4.89856 23.7403 4.14474C21.9204 3.39092 19.9698 3.00293 18 3.00293Z" fill="#FAFAFA"/>
</svg>
