<svg width="36" height="36" viewBox="0 0 36 36" fill="none" xmlns="http://www.w3.org/2000/svg">
<g clip-path="url(#clip0_112_24)">
<path d="M27.3236 6.08154C28.0308 6.08154 28.7091 6.36249 29.2092 6.86259C29.7093 7.36269 29.9902 8.04097 29.9902 8.74821V27.4149C29.9902 28.1221 29.7093 28.8004 29.2092 29.3005C28.7091 29.8006 28.0308 30.0815 27.3236 30.0815H8.6569C7.94966 30.0815 7.27138 29.8006 6.77128 29.3005C6.27119 28.8004 5.99023 28.1221 5.99023 27.4149V8.74821C5.99023 8.04097 6.27119 7.36269 6.77128 6.86259C7.27138 6.36249 7.94966 6.08154 8.6569 6.08154H27.3236ZM26.6569 26.7482V19.6815C26.6569 18.5287 26.199 17.4231 25.3838 16.608C24.5686 15.7928 23.463 15.3349 22.3102 15.3349C21.1769 15.3349 19.8569 16.0282 19.2169 17.0682V15.5882H15.4969V26.7482H19.2169V20.1749C19.2169 19.1482 20.0436 18.3082 21.0702 18.3082C21.5653 18.3082 22.0401 18.5049 22.3902 18.8549C22.7402 19.205 22.9369 19.6798 22.9369 20.1749V26.7482H26.6569ZM11.1636 13.4949C11.7577 13.4949 12.3274 13.2589 12.7475 12.8388C13.1676 12.4187 13.4036 11.849 13.4036 11.2549C13.4036 10.0149 12.4036 9.00154 11.1636 9.00154C10.5659 9.00154 9.9928 9.23895 9.57022 9.66153C9.14764 10.0841 8.91023 10.6573 8.91023 11.2549C8.91023 12.4949 9.92357 13.4949 11.1636 13.4949ZM13.0169 26.7482V15.5882H9.32357V26.7482H13.0169Z" fill="#FAFAFA"/>
</g>
<defs>
<clipPath id="clip0_112_24">
<rect width="24" height="24" fill="white" transform="translate(5.99023 6.08154)"/>
</clipPath>
</defs>
</svg>
