<svg width="36" height="36" viewBox="0 0 36 36" fill="none" xmlns="http://www.w3.org/2000/svg">
<path d="M17.9963 6.75293C11.8708 6.75293 6.75551 11.8774 6.75551 17.9974C6.75787 20.2128 7.41266 22.3784 8.63817 24.224L6.75 29.2475L13.0665 28.105C14.6027 28.8512 16.2885 29.2381 17.9963 29.2364C24.1274 29.2401 29.25 24.123 29.25 17.9993C29.25 11.8829 24.1255 6.74926 17.9963 6.75293Z" stroke="#FAFAFA" stroke-width="2.12566" stroke-linecap="round" stroke-linejoin="round"/>
<path d="M18.6152 22.9534C20.1378 23.9287 21.7229 23.2179 22.8287 22.3932C23.5909 21.8238 23.567 20.7273 22.915 20.033L21.6293 18.6646C21.1425 19.1514 20.1911 19.3938 19.5317 19.1918C18.1119 18.7602 17.5168 18.0218 17.0338 17.2687C16.4809 16.4055 17.1072 15.1161 17.594 14.6293L16.1613 13.3216C15.557 12.7705 14.6405 12.6787 14.1133 13.3032C13.0701 14.5393 12.4235 16.4183 13.1895 17.614C14.567 19.7612 16.468 21.5759 18.6152 22.9534Z" stroke="#FAFAFA" stroke-width="2.12566" stroke-linecap="round" stroke-linejoin="round"/>
</svg>
