<svg width="177" height="62" viewBox="0 0 177 62" fill="none" xmlns="http://www.w3.org/2000/svg">
<g clip-path="url(#clip0_45_39)">
<path d="M5.77688 31.36C4.49688 31.2533 3.49688 30.84 2.77688 30.12C2.05688 29.4 1.69688 28.4933 1.69688 27.4C1.69688 26.5467 1.91021 25.6533 2.33688 24.72L11.3769 4.6C11.6702 3.93333 12.0435 3.44 12.4969 3.12C12.9769 2.8 13.5635 2.64 14.2569 2.64C14.9502 2.64 15.5235 2.8 15.9769 3.12C16.4569 3.44 16.8435 3.93333 17.1369 4.6L26.1769 24.72C26.6035 25.6533 26.8169 26.5333 26.8169 27.36C26.8169 28.48 26.4569 29.4 25.7369 30.12C25.0169 30.84 24.0035 31.2533 22.6969 31.36L19.3369 24.04H9.13688L5.77688 31.36ZM17.5369 19L13.4169 8.76L12.8569 9L13.9369 11.68L10.8969 19H17.5369ZM35.9766 31.36C33.6566 31.36 31.9099 30.7067 30.7366 29.4C29.5632 28.0667 28.9766 26.3867 28.9766 24.36V5.84C28.9766 4.69333 29.4166 3.88 30.2966 3.4C31.2032 2.89333 32.5899 2.64 34.4566 2.64V24.16C34.4566 25.04 34.6566 25.68 35.0566 26.08C35.4566 26.4533 36.0832 26.64 36.9366 26.64C37.9499 26.64 38.9499 26.3733 39.9366 25.84C40.2299 26.1067 40.4566 26.44 40.6166 26.84C40.8032 27.24 40.8966 27.64 40.8966 28.04C40.8966 28.8933 40.4699 29.6667 39.6166 30.36C38.7899 31.0267 37.5766 31.36 35.9766 31.36ZM50.7928 31.36C49.1395 31.36 47.6061 31.0267 46.1928 30.36C44.8061 29.6933 43.6995 28.7867 42.8728 27.64C42.0461 26.4933 41.6328 25.2133 41.6328 23.8V18.68C41.6328 17.1867 42.0461 15.8267 42.8728 14.6C43.7261 13.3467 44.8595 12.3733 46.2728 11.68C47.6861 10.9867 49.2061 10.64 50.8328 10.64C52.4328 10.64 53.8995 10.9733 55.2328 11.64C56.5928 12.28 57.6595 13.2 58.4328 14.4C59.2061 15.5733 59.5928 16.9067 59.5928 18.4V20.56C59.5928 21.2 59.3528 21.7467 58.8728 22.2C58.3928 22.6267 57.7795 22.84 57.0328 22.84H46.9528V23.4C46.9528 24.4667 47.2728 25.3467 47.9128 26.04C48.5795 26.7067 49.5528 27.04 50.8328 27.04C52.0861 27.04 53.0061 26.7733 53.5928 26.24C54.1795 25.68 54.4728 24.9867 54.4728 24.16C55.0061 24.1067 55.4061 24.08 55.6728 24.08C56.7661 24.08 57.6061 24.3067 58.1928 24.76C58.7795 25.2133 59.0728 25.88 59.0728 26.76C59.0728 27.48 58.7128 28.2 57.9928 28.92C57.2728 29.64 56.2728 30.2267 54.9928 30.68C53.7395 31.1333 52.3395 31.36 50.7928 31.36ZM54.6328 18.96V18.4C54.6328 17.3333 54.2728 16.4933 53.5528 15.88C52.8595 15.24 51.9395 14.92 50.7928 14.92C49.6461 14.92 48.7128 15.24 47.9928 15.88C47.2995 16.4933 46.9528 17.3333 46.9528 18.4V18.96H54.6328ZM62.4731 31.36C61.9131 31.36 61.3398 31.2667 60.7531 31.08C60.1665 30.92 59.6998 30.6533 59.3531 30.28L66.3131 20.72L59.9531 11.44C60.1665 11.2 60.5798 11.0133 61.1931 10.88C61.8065 10.72 62.3531 10.64 62.8331 10.64C64.3798 10.64 65.4198 11.0667 65.9531 11.92L69.2331 17.2L68.3931 18.36L68.7131 18.6L73.0331 11.92C73.5931 11.0667 74.6998 10.64 76.3531 10.64C76.8331 10.64 77.3398 10.72 77.8731 10.88C78.4331 11.0133 78.8198 11.2 79.0331 11.44L72.6331 20.72L79.6331 30.28C79.2865 30.6533 78.8465 30.92 78.3131 31.08C77.7798 31.2667 77.2465 31.36 76.7131 31.36C76.1265 31.36 75.5398 31.2533 74.9531 31.04C74.3931 30.8267 73.9931 30.56 73.7531 30.24L69.4731 23.88L65.2331 30.24C64.9931 30.5867 64.6198 30.8533 64.1131 31.04C63.6065 31.2533 63.0598 31.36 62.4731 31.36ZM86.0119 31.36C84.7052 31.36 83.4785 31.1067 82.3319 30.6C81.2119 30.0667 80.3052 29.3067 79.6119 28.32C78.9185 27.3067 78.5719 26.0933 78.5719 24.68C78.5719 23.2667 78.9452 22.0533 79.6919 21.04C80.4385 20 81.4252 19.2133 82.6519 18.68C83.9052 18.1467 85.2652 17.88 86.7319 17.88C87.9585 17.88 89.0385 18.0667 89.9719 18.44C90.9319 18.8133 91.8252 19.36 92.6519 20.08L92.8519 19.84C92.2919 19.3333 91.8519 18.9733 91.5319 18.76V18.24C91.5319 17.2267 91.1585 16.4267 90.4119 15.84C89.6919 15.2267 88.6652 14.92 87.3319 14.92C86.1585 14.92 85.1185 15.1333 84.2119 15.56C83.3052 15.9867 82.5719 16.6133 82.0119 17.44C81.3719 17.28 80.8252 16.9867 80.3719 16.56C79.9452 16.1067 79.7319 15.6133 79.7319 15.08C79.7319 14.2533 80.0919 13.5067 80.8119 12.84C81.5319 12.1467 82.5052 11.6133 83.7319 11.24C84.9852 10.84 86.3585 10.64 87.8519 10.64C90.7585 10.64 92.9985 11.3067 94.5719 12.64C96.1452 13.9733 96.9319 15.7867 96.9319 18.08V27.8C96.9319 29.0533 96.5185 29.96 95.6919 30.52C94.8919 31.08 93.6119 31.36 91.8519 31.36V29.8C92.2519 29.4267 92.5719 29.0933 92.8119 28.8L92.6119 28.6C91.7319 29.5067 90.8119 30.2 89.8519 30.68C88.8919 31.1333 87.6119 31.36 86.0119 31.36ZM87.5319 27.44C88.8119 27.44 89.8119 27.2 90.5319 26.72C91.2519 26.24 91.6119 25.5467 91.6119 24.64C91.6119 23.76 91.2385 23.0667 90.4919 22.56C89.7719 22.0533 88.7852 21.8 87.5319 21.8C86.4119 21.8 85.5185 22.0533 84.8519 22.56C84.2119 23.0667 83.8919 23.76 83.8919 24.64C83.8919 25.5467 84.2119 26.24 84.8519 26.72C85.5185 27.2 86.4119 27.44 87.5319 27.44ZM99.8797 14.8C99.8797 13.4667 100.32 12.44 101.2 11.72C102.08 11 103.386 10.64 105.12 10.64V13C104.72 13.4267 104.386 13.88 104.12 14.36L104.4 14.52C105.2 13.2933 106.213 12.3467 107.44 11.68C108.693 10.9867 110.08 10.64 111.6 10.64C112.933 10.64 114.106 10.9467 115.12 11.56C116.16 12.1733 116.973 13.0267 117.56 14.12C118.146 15.1867 118.44 16.3867 118.44 17.72V28.16C118.44 29.3067 117.986 30.1333 117.08 30.64C116.173 31.12 114.8 31.36 112.96 31.36V18.56C112.96 17.6533 112.666 16.8933 112.08 16.28C111.52 15.6667 110.72 15.36 109.68 15.36C108.4 15.36 107.36 15.7733 106.56 16.6C105.76 17.4267 105.36 18.4667 105.36 19.72V28.16C105.36 29.3067 104.906 30.1333 104 30.64C103.12 31.12 101.746 31.36 99.8797 31.36V14.8ZM128.763 31.36C127.35 31.36 126.07 31.0533 124.923 30.44C123.776 29.8 122.87 28.9333 122.203 27.84C121.536 26.72 121.203 25.4667 121.203 24.08V17.92C121.203 16.5333 121.55 15.2933 122.243 14.2C122.963 13.08 123.95 12.2133 125.203 11.6C126.456 10.96 127.843 10.64 129.363 10.64C130.27 10.64 131.243 10.8267 132.283 11.2C133.35 11.5733 134.23 12.0933 134.923 12.76L135.083 12.56C134.95 12.3467 134.656 12.08 134.203 11.76V6.24C134.203 5.12 134.656 4.24 135.563 3.6C136.496 2.96 137.896 2.64 139.763 2.64V27.72C139.763 28.76 139.35 29.6267 138.523 30.32C137.696 31.0133 136.43 31.36 134.723 31.36V29.2C135.043 28.8 135.296 28.44 135.483 28.12L135.283 27.96C134.43 29.1067 133.51 29.96 132.523 30.52C131.563 31.08 130.31 31.36 128.763 31.36ZM130.483 26.64C131.603 26.64 132.51 26.3867 133.203 25.88C133.923 25.3467 134.283 24.68 134.283 23.88V18.12C134.283 17.3467 133.923 16.6933 133.203 16.16C132.51 15.6267 131.603 15.36 130.483 15.36C129.256 15.36 128.31 15.6133 127.643 16.12C127.003 16.6267 126.683 17.3467 126.683 18.28V23.68C126.683 24.64 127.003 25.3733 127.643 25.88C128.31 26.3867 129.256 26.64 130.483 26.64ZM153.767 15.36C152.167 15.36 150.873 15.7733 149.887 16.6C148.9 17.4267 148.407 18.4667 148.407 19.72V28.16C148.407 29.3067 147.953 30.1333 147.047 30.64C146.167 31.12 144.793 31.36 142.927 31.36V14.8C142.927 13.4667 143.367 12.44 144.247 11.72C145.127 11 146.433 10.64 148.167 10.64V13C147.767 13.4267 147.433 13.88 147.167 14.36L147.447 14.52C149.127 11.9333 151.22 10.64 153.727 10.64C154.927 10.64 155.833 10.96 156.447 11.6C157.06 12.24 157.367 13.0533 157.367 14.04C157.367 14.7867 157.167 15.44 156.767 16C156.02 15.5733 155.02 15.36 153.767 15.36ZM166.496 31.36C164.843 31.36 163.309 31.0267 161.896 30.36C160.509 29.6933 159.403 28.7867 158.576 27.64C157.749 26.4933 157.336 25.2133 157.336 23.8V18.68C157.336 17.1867 157.749 15.8267 158.576 14.6C159.429 13.3467 160.563 12.3733 161.976 11.68C163.389 10.9867 164.909 10.64 166.536 10.64C168.136 10.64 169.603 10.9733 170.936 11.64C172.296 12.28 173.363 13.2 174.136 14.4C174.909 15.5733 175.296 16.9067 175.296 18.4V20.56C175.296 21.2 175.056 21.7467 174.576 22.2C174.096 22.6267 173.483 22.84 172.736 22.84H162.656V23.4C162.656 24.4667 162.976 25.3467 163.616 26.04C164.283 26.7067 165.256 27.04 166.536 27.04C167.789 27.04 168.709 26.7733 169.296 26.24C169.883 25.68 170.176 24.9867 170.176 24.16C170.709 24.1067 171.109 24.08 171.376 24.08C172.469 24.08 173.309 24.3067 173.896 24.76C174.483 25.2133 174.776 25.88 174.776 26.76C174.776 27.48 174.416 28.2 173.696 28.92C172.976 29.64 171.976 30.2267 170.696 30.68C169.443 31.1333 168.043 31.36 166.496 31.36ZM170.336 18.96V18.4C170.336 17.3333 169.976 16.4933 169.256 15.88C168.563 15.24 167.643 14.92 166.496 14.92C165.349 14.92 164.416 15.24 163.696 15.88C163.003 16.4933 162.656 17.3333 162.656 18.4V18.96H170.336ZM38.9667 62C38.1401 62 37.4867 61.7733 37.0067 61.32C36.5267 60.8667 36.2867 60.2667 36.2867 59.52C36.2867 58.8267 36.4734 58.2533 36.8467 57.8L54.3667 37.48L53.9667 37.16L52.2867 39H41.4067C40.0467 39 39.0067 38.5733 38.2867 37.72C37.5934 36.8667 37.2467 35.6267 37.2467 34H58.7267C59.5801 34 60.2334 34.2133 60.6867 34.64C61.1667 35.0667 61.4067 35.68 61.4067 36.48C61.4067 37.1733 61.2201 37.7467 60.8467 38.2L43.5267 58.52L43.9267 58.84L45.5667 57H57.3667C58.7001 57 59.7134 57.4267 60.4067 58.28C61.1267 59.1333 61.4867 60.3733 61.4867 62H38.9667ZM71.0077 62.36C69.3543 62.36 67.821 62.0267 66.4077 61.36C65.021 60.6933 63.9143 59.7867 63.0877 58.64C62.261 57.4933 61.8477 56.2133 61.8477 54.8V49.68C61.8477 48.1867 62.261 46.8267 63.0877 45.6C63.941 44.3467 65.0743 43.3733 66.4877 42.68C67.901 41.9867 69.421 41.64 71.0477 41.64C72.6477 41.64 74.1143 41.9733 75.4477 42.64C76.8077 43.28 77.8743 44.2 78.6477 45.4C79.421 46.5733 79.8077 47.9067 79.8077 49.4V51.56C79.8077 52.2 79.5677 52.7467 79.0877 53.2C78.6077 53.6267 77.9943 53.84 77.2477 53.84H67.1677V54.4C67.1677 55.4667 67.4877 56.3467 68.1277 57.04C68.7943 57.7067 69.7677 58.04 71.0477 58.04C72.301 58.04 73.221 57.7733 73.8077 57.24C74.3943 56.68 74.6877 55.9867 74.6877 55.16C75.221 55.1067 75.621 55.08 75.8877 55.08C76.981 55.08 77.821 55.3067 78.4077 55.76C78.9943 56.2133 79.2877 56.88 79.2877 57.76C79.2877 58.48 78.9277 59.2 78.2077 59.92C77.4877 60.64 76.4877 61.2267 75.2077 61.68C73.9543 62.1333 72.5543 62.36 71.0077 62.36ZM74.8477 49.96V49.4C74.8477 48.3333 74.4877 47.4933 73.7677 46.88C73.0743 46.24 72.1543 45.92 71.0077 45.92C69.861 45.92 68.9277 46.24 68.2077 46.88C67.5143 47.4933 67.1677 48.3333 67.1677 49.4V49.96H74.8477ZM82.1648 45.8C82.1648 44.4667 82.6048 43.44 83.4848 42.72C84.3648 42 85.6715 41.64 87.4048 41.64V44C87.0048 44.4267 86.6715 44.88 86.4048 45.36L86.6848 45.52C87.4848 44.2933 88.4982 43.3467 89.7248 42.68C90.9782 41.9867 92.3648 41.64 93.8848 41.64C95.2182 41.64 96.3915 41.9467 97.4048 42.56C98.4448 43.1733 99.2582 44.0267 99.8448 45.12C100.432 46.1867 100.725 47.3867 100.725 48.72V59.16C100.725 60.3067 100.272 61.1333 99.3648 61.64C98.4582 62.12 97.0848 62.36 95.2448 62.36V49.56C95.2448 48.6533 94.9515 47.8933 94.3648 47.28C93.8048 46.6667 93.0048 46.36 91.9648 46.36C90.6848 46.36 89.6448 46.7733 88.8448 47.6C88.0448 48.4267 87.6448 49.4667 87.6448 50.72V59.16C87.6448 60.3067 87.1915 61.1333 86.2848 61.64C85.4048 62.12 84.0315 62.36 82.1648 62.36V45.8ZM110.328 62.36C109.022 62.36 107.795 62.1067 106.648 61.6C105.528 61.0667 104.622 60.3067 103.928 59.32C103.235 58.3067 102.888 57.0933 102.888 55.68C102.888 54.2667 103.262 53.0533 104.008 52.04C104.755 51 105.742 50.2133 106.968 49.68C108.222 49.1467 109.582 48.88 111.048 48.88C112.275 48.88 113.355 49.0667 114.288 49.44C115.248 49.8133 116.142 50.36 116.968 51.08L117.168 50.84C116.608 50.3333 116.168 49.9733 115.848 49.76V49.24C115.848 48.2267 115.475 47.4267 114.728 46.84C114.008 46.2267 112.982 45.92 111.648 45.92C110.475 45.92 109.435 46.1333 108.528 46.56C107.622 46.9867 106.888 47.6133 106.328 48.44C105.688 48.28 105.142 47.9867 104.688 47.56C104.262 47.1067 104.048 46.6133 104.048 46.08C104.048 45.2533 104.408 44.5067 105.128 43.84C105.848 43.1467 106.822 42.6133 108.048 42.24C109.302 41.84 110.675 41.64 112.168 41.64C115.075 41.64 117.315 42.3067 118.888 43.64C120.462 44.9733 121.248 46.7867 121.248 49.08V58.8C121.248 60.0533 120.835 60.96 120.008 61.52C119.208 62.08 117.928 62.36 116.168 62.36V60.8C116.568 60.4267 116.888 60.0933 117.128 59.8L116.928 59.6C116.048 60.5067 115.128 61.2 114.168 61.68C113.208 62.1333 111.928 62.36 110.328 62.36ZM111.848 58.44C113.128 58.44 114.128 58.2 114.848 57.72C115.568 57.24 115.928 56.5467 115.928 55.64C115.928 54.76 115.555 54.0667 114.808 53.56C114.088 53.0533 113.102 52.8 111.848 52.8C110.728 52.8 109.835 53.0533 109.168 53.56C108.528 54.0667 108.208 54.76 108.208 55.64C108.208 56.5467 108.528 57.24 109.168 57.72C109.835 58.2 110.728 58.44 111.848 58.44ZM132.05 62.36C129.33 62.36 127.183 61.9067 125.61 61C124.037 60.0667 123.25 58.8267 123.25 57.28C123.25 56.5867 123.543 56 124.13 55.52C124.743 55.04 125.717 54.8 127.05 54.8C127.263 55.8667 127.797 56.7067 128.65 57.32C129.503 57.9067 130.503 58.2 131.65 58.2C132.983 58.2 134.01 58.04 134.73 57.72C135.477 57.4 135.85 56.9333 135.85 56.32C135.85 55.7867 135.557 55.32 134.97 54.92C134.383 54.52 133.21 54.1067 131.45 53.68C129.397 53.2 127.797 52.72 126.65 52.24C125.53 51.7333 124.703 51.1067 124.17 50.36C123.637 49.6133 123.37 48.6267 123.37 47.4C123.37 45.6667 124.09 44.28 125.53 43.24C126.997 42.1733 129.037 41.64 131.65 41.64C134.21 41.64 136.29 42.08 137.89 42.96C139.49 43.84 140.29 45.0133 140.29 46.48C140.29 47.2267 140.01 47.7733 139.45 48.12C138.89 48.44 137.957 48.6133 136.65 48.64C136.303 47.6267 135.77 46.88 135.05 46.4C134.357 45.8933 133.357 45.64 132.05 45.64C131.117 45.64 130.29 45.8 129.57 46.12C128.85 46.44 128.49 46.8267 128.49 47.28C128.49 47.7867 128.783 48.1867 129.37 48.48C129.983 48.7733 130.997 49.0667 132.41 49.36C135.477 50.0267 137.677 50.9067 139.01 52C140.37 53.0933 141.05 54.5733 141.05 56.44C141.05 57.5867 140.69 58.6133 139.97 59.52C139.25 60.4267 138.21 61.1333 136.85 61.64C135.49 62.12 133.89 62.36 132.05 62.36Z" fill="#225378"/>
</g>
<defs>
<clipPath id="clip0_45_39">
<rect width="177" height="62" fill="white"/>
</clipPath>
</defs>
</svg>
