<svg width="53" height="30" viewBox="0 0 53 30" fill="none" xmlns="http://www.w3.org/2000/svg">
<path d="M4.63625 29.36C3.35625 29.2533 2.35625 28.84 1.63625 28.12C0.91625 27.4 0.55625 26.4933 0.55625 25.4C0.55625 24.5467 0.769583 23.6533 1.19625 22.72L10.2363 2.6C10.5296 1.93333 10.9029 1.44 11.3563 1.12C11.8363 0.799998 12.4229 0.639998 13.1163 0.639998C13.8096 0.639998 14.3829 0.799998 14.8363 1.12C15.3163 1.44 15.7029 1.93333 15.9963 2.6L25.0363 22.72C25.4629 23.6533 25.6763 24.5333 25.6763 25.36C25.6763 26.48 25.3163 27.4 24.5963 28.12C23.8763 28.84 22.8629 29.2533 21.5563 29.36L18.1963 22.04H7.99625L4.63625 29.36ZM16.3963 17L12.2763 6.76L11.7163 7L12.7963 9.68L9.75625 17H16.3963ZM29.9159 29C29.0893 29 28.4359 28.7733 27.9559 28.32C27.4759 27.8667 27.2359 27.2667 27.2359 26.52C27.2359 25.8267 27.4226 25.2533 27.7959 24.8L45.3159 4.48L44.9159 4.16L43.2359 6H32.3559C30.9959 6 29.9559 5.57333 29.2359 4.72C28.5426 3.86666 28.1959 2.62666 28.1959 0.999998H49.6759C50.5293 0.999998 51.1826 1.21333 51.6359 1.64C52.1159 2.06667 52.3559 2.68 52.3559 3.48C52.3559 4.17333 52.1693 4.74667 51.7959 5.2L34.4759 25.52L34.8759 25.84L36.5159 24H48.3159C49.6493 24 50.6626 24.4267 51.3559 25.28C52.0759 26.1333 52.4359 27.3733 52.4359 29H29.9159Z" fill="#225378"/>
</svg>
