<svg width="174" height="61" viewBox="0 0 174 61" fill="none" xmlns="http://www.w3.org/2000/svg">
<path d="M4.27688 29.36C2.99688 29.2533 1.99688 28.84 1.27688 28.12C0.556875 27.4 0.196875 26.4933 0.196875 25.4C0.196875 24.5467 0.410208 23.6533 0.836875 22.72L9.87688 2.6C10.1702 1.93333 10.5435 1.44 10.9969 1.12C11.4769 0.799998 12.0635 0.639998 12.7569 0.639998C13.4502 0.639998 14.0235 0.799998 14.4769 1.12C14.9569 1.44 15.3435 1.93333 15.6369 2.6L24.6769 22.72C25.1035 23.6533 25.3169 24.5333 25.3169 25.36C25.3169 26.48 24.9569 27.4 24.2369 28.12C23.5169 28.84 22.5035 29.2533 21.1969 29.36L17.8369 22.04H7.63688L4.27688 29.36ZM16.0369 17L11.9169 6.76L11.3569 7L12.4369 9.68L9.39688 17H16.0369ZM34.4766 29.36C32.1566 29.36 30.4099 28.7067 29.2366 27.4C28.0632 26.0667 27.4766 24.3867 27.4766 22.36V3.84C27.4766 2.69333 27.9166 1.88 28.7966 1.4C29.7032 0.893331 31.0899 0.639998 32.9566 0.639998V22.16C32.9566 23.04 33.1566 23.68 33.5566 24.08C33.9566 24.4533 34.5832 24.64 35.4366 24.64C36.4499 24.64 37.4499 24.3733 38.4366 23.84C38.7299 24.1067 38.9566 24.44 39.1166 24.84C39.3032 25.24 39.3966 25.64 39.3966 26.04C39.3966 26.8933 38.9699 27.6667 38.1166 28.36C37.2899 29.0267 36.0766 29.36 34.4766 29.36ZM49.2928 29.36C47.6395 29.36 46.1061 29.0267 44.6928 28.36C43.3061 27.6933 42.1995 26.7867 41.3728 25.64C40.5461 24.4933 40.1328 23.2133 40.1328 21.8V16.68C40.1328 15.1867 40.5461 13.8267 41.3728 12.6C42.2261 11.3467 43.3595 10.3733 44.7728 9.68C46.1861 8.98667 47.7061 8.64 49.3328 8.64C50.9328 8.64 52.3995 8.97333 53.7328 9.64C55.0928 10.28 56.1595 11.2 56.9328 12.4C57.7061 13.5733 58.0928 14.9067 58.0928 16.4V18.56C58.0928 19.2 57.8528 19.7467 57.3728 20.2C56.8928 20.6267 56.2795 20.84 55.5328 20.84H45.4528V21.4C45.4528 22.4667 45.7728 23.3467 46.4128 24.04C47.0795 24.7067 48.0528 25.04 49.3328 25.04C50.5861 25.04 51.5061 24.7733 52.0928 24.24C52.6795 23.68 52.9728 22.9867 52.9728 22.16C53.5061 22.1067 53.9061 22.08 54.1728 22.08C55.2661 22.08 56.1061 22.3067 56.6928 22.76C57.2795 23.2133 57.5728 23.88 57.5728 24.76C57.5728 25.48 57.2128 26.2 56.4928 26.92C55.7728 27.64 54.7728 28.2267 53.4928 28.68C52.2395 29.1333 50.8395 29.36 49.2928 29.36ZM53.1328 16.96V16.4C53.1328 15.3333 52.7728 14.4933 52.0528 13.88C51.3595 13.24 50.4395 12.92 49.2928 12.92C48.1461 12.92 47.2128 13.24 46.4928 13.88C45.7995 14.4933 45.4528 15.3333 45.4528 16.4V16.96H53.1328ZM60.9731 29.36C60.4131 29.36 59.8398 29.2667 59.2531 29.08C58.6665 28.92 58.1998 28.6533 57.8531 28.28L64.8131 18.72L58.4531 9.44C58.6665 9.2 59.0798 9.01333 59.6931 8.88C60.3065 8.72 60.8531 8.64 61.3331 8.64C62.8798 8.64 63.9198 9.06667 64.4531 9.92L67.7331 15.2L66.8931 16.36L67.2131 16.6L71.5331 9.92C72.0931 9.06667 73.1998 8.64 74.8531 8.64C75.3331 8.64 75.8398 8.72 76.3731 8.88C76.9331 9.01333 77.3198 9.2 77.5331 9.44L71.1331 18.72L78.1331 28.28C77.7865 28.6533 77.3465 28.92 76.8131 29.08C76.2798 29.2667 75.7465 29.36 75.2131 29.36C74.6265 29.36 74.0398 29.2533 73.4531 29.04C72.8931 28.8267 72.4931 28.56 72.2531 28.24L67.9731 21.88L63.7331 28.24C63.4931 28.5867 63.1198 28.8533 62.6131 29.04C62.1065 29.2533 61.5598 29.36 60.9731 29.36ZM84.5119 29.36C83.2052 29.36 81.9785 29.1067 80.8319 28.6C79.7119 28.0667 78.8052 27.3067 78.1119 26.32C77.4185 25.3067 77.0719 24.0933 77.0719 22.68C77.0719 21.2667 77.4452 20.0533 78.1919 19.04C78.9385 18 79.9252 17.2133 81.1519 16.68C82.4052 16.1467 83.7652 15.88 85.2319 15.88C86.4585 15.88 87.5385 16.0667 88.4719 16.44C89.4319 16.8133 90.3252 17.36 91.1519 18.08L91.3519 17.84C90.7919 17.3333 90.3519 16.9733 90.0319 16.76V16.24C90.0319 15.2267 89.6585 14.4267 88.9119 13.84C88.1919 13.2267 87.1652 12.92 85.8319 12.92C84.6585 12.92 83.6185 13.1333 82.7119 13.56C81.8052 13.9867 81.0719 14.6133 80.5119 15.44C79.8719 15.28 79.3252 14.9867 78.8719 14.56C78.4452 14.1067 78.2319 13.6133 78.2319 13.08C78.2319 12.2533 78.5919 11.5067 79.3119 10.84C80.0319 10.1467 81.0052 9.61333 82.2319 9.24C83.4852 8.84 84.8585 8.64 86.3519 8.64C89.2585 8.64 91.4985 9.30667 93.0719 10.64C94.6452 11.9733 95.4319 13.7867 95.4319 16.08V25.8C95.4319 27.0533 95.0185 27.96 94.1919 28.52C93.3919 29.08 92.1119 29.36 90.3519 29.36V27.8C90.7519 27.4267 91.0719 27.0933 91.3119 26.8L91.1119 26.6C90.2319 27.5067 89.3119 28.2 88.3519 28.68C87.3919 29.1333 86.1119 29.36 84.5119 29.36ZM86.0319 25.44C87.3119 25.44 88.3119 25.2 89.0319 24.72C89.7519 24.24 90.1119 23.5467 90.1119 22.64C90.1119 21.76 89.7385 21.0667 88.9919 20.56C88.2719 20.0533 87.2852 19.8 86.0319 19.8C84.9119 19.8 84.0185 20.0533 83.3519 20.56C82.7119 21.0667 82.3919 21.76 82.3919 22.64C82.3919 23.5467 82.7119 24.24 83.3519 24.72C84.0185 25.2 84.9119 25.44 86.0319 25.44ZM98.3797 12.8C98.3797 11.4667 98.8197 10.44 99.6997 9.72C100.58 9 101.886 8.64 103.62 8.64V11C103.22 11.4267 102.886 11.88 102.62 12.36L102.9 12.52C103.7 11.2933 104.713 10.3467 105.94 9.68C107.193 8.98667 108.58 8.64 110.1 8.64C111.433 8.64 112.606 8.94667 113.62 9.56C114.66 10.1733 115.473 11.0267 116.06 12.12C116.646 13.1867 116.94 14.3867 116.94 15.72V26.16C116.94 27.3067 116.486 28.1333 115.58 28.64C114.673 29.12 113.3 29.36 111.46 29.36V16.56C111.46 15.6533 111.166 14.8933 110.58 14.28C110.02 13.6667 109.22 13.36 108.18 13.36C106.9 13.36 105.86 13.7733 105.06 14.6C104.26 15.4267 103.86 16.4667 103.86 17.72V26.16C103.86 27.3067 103.406 28.1333 102.5 28.64C101.62 29.12 100.246 29.36 98.3797 29.36V12.8ZM127.263 29.36C125.85 29.36 124.57 29.0533 123.423 28.44C122.276 27.8 121.37 26.9333 120.703 25.84C120.036 24.72 119.703 23.4667 119.703 22.08V15.92C119.703 14.5333 120.05 13.2933 120.743 12.2C121.463 11.08 122.45 10.2133 123.703 9.6C124.956 8.96 126.343 8.64 127.863 8.64C128.77 8.64 129.743 8.82667 130.783 9.2C131.85 9.57333 132.73 10.0933 133.423 10.76L133.583 10.56C133.45 10.3467 133.156 10.08 132.703 9.76V4.24C132.703 3.12 133.156 2.24 134.063 1.6C134.996 0.959998 136.396 0.639998 138.263 0.639998V25.72C138.263 26.76 137.85 27.6267 137.023 28.32C136.196 29.0133 134.93 29.36 133.223 29.36V27.2C133.543 26.8 133.796 26.44 133.983 26.12L133.783 25.96C132.93 27.1067 132.01 27.96 131.023 28.52C130.063 29.08 128.81 29.36 127.263 29.36ZM128.983 24.64C130.103 24.64 131.01 24.3867 131.703 23.88C132.423 23.3467 132.783 22.68 132.783 21.88V16.12C132.783 15.3467 132.423 14.6933 131.703 14.16C131.01 13.6267 130.103 13.36 128.983 13.36C127.756 13.36 126.81 13.6133 126.143 14.12C125.503 14.6267 125.183 15.3467 125.183 16.28V21.68C125.183 22.64 125.503 23.3733 126.143 23.88C126.81 24.3867 127.756 24.64 128.983 24.64ZM152.267 13.36C150.667 13.36 149.373 13.7733 148.387 14.6C147.4 15.4267 146.907 16.4667 146.907 17.72V26.16C146.907 27.3067 146.453 28.1333 145.547 28.64C144.667 29.12 143.293 29.36 141.427 29.36V12.8C141.427 11.4667 141.867 10.44 142.747 9.72C143.627 9 144.933 8.64 146.667 8.64V11C146.267 11.4267 145.933 11.88 145.667 12.36L145.947 12.52C147.627 9.93333 149.72 8.64 152.227 8.64C153.427 8.64 154.333 8.96 154.947 9.6C155.56 10.24 155.867 11.0533 155.867 12.04C155.867 12.7867 155.667 13.44 155.267 14C154.52 13.5733 153.52 13.36 152.267 13.36ZM164.996 29.36C163.343 29.36 161.809 29.0267 160.396 28.36C159.009 27.6933 157.903 26.7867 157.076 25.64C156.249 24.4933 155.836 23.2133 155.836 21.8V16.68C155.836 15.1867 156.249 13.8267 157.076 12.6C157.929 11.3467 159.063 10.3733 160.476 9.68C161.889 8.98667 163.409 8.64 165.036 8.64C166.636 8.64 168.103 8.97333 169.436 9.64C170.796 10.28 171.863 11.2 172.636 12.4C173.409 13.5733 173.796 14.9067 173.796 16.4V18.56C173.796 19.2 173.556 19.7467 173.076 20.2C172.596 20.6267 171.983 20.84 171.236 20.84H161.156V21.4C161.156 22.4667 161.476 23.3467 162.116 24.04C162.783 24.7067 163.756 25.04 165.036 25.04C166.289 25.04 167.209 24.7733 167.796 24.24C168.383 23.68 168.676 22.9867 168.676 22.16C169.209 22.1067 169.609 22.08 169.876 22.08C170.969 22.08 171.809 22.3067 172.396 22.76C172.983 23.2133 173.276 23.88 173.276 24.76C173.276 25.48 172.916 26.2 172.196 26.92C171.476 27.64 170.476 28.2267 169.196 28.68C167.943 29.1333 166.543 29.36 164.996 29.36ZM168.836 16.96V16.4C168.836 15.3333 168.476 14.4933 167.756 13.88C167.063 13.24 166.143 12.92 164.996 12.92C163.849 12.92 162.916 13.24 162.196 13.88C161.503 14.4933 161.156 15.3333 161.156 16.4V16.96H168.836ZM37.4667 60C36.6401 60 35.9867 59.7733 35.5067 59.32C35.0267 58.8667 34.7867 58.2667 34.7867 57.52C34.7867 56.8267 34.9734 56.2533 35.3467 55.8L52.8667 35.48L52.4667 35.16L50.7867 37H39.9067C38.5467 37 37.5067 36.5733 36.7867 35.72C36.0934 34.8667 35.7467 33.6267 35.7467 32H57.2267C58.0801 32 58.7334 32.2133 59.1867 32.64C59.6667 33.0667 59.9067 33.68 59.9067 34.48C59.9067 35.1733 59.7201 35.7467 59.3467 36.2L42.0267 56.52L42.4267 56.84L44.0667 55H55.8667C57.2001 55 58.2134 55.4267 58.9067 56.28C59.6267 57.1333 59.9867 58.3733 59.9867 60H37.4667ZM69.5077 60.36C67.8543 60.36 66.321 60.0267 64.9077 59.36C63.521 58.6933 62.4143 57.7867 61.5877 56.64C60.761 55.4933 60.3477 54.2133 60.3477 52.8V47.68C60.3477 46.1867 60.761 44.8267 61.5877 43.6C62.441 42.3467 63.5743 41.3733 64.9877 40.68C66.401 39.9867 67.921 39.64 69.5477 39.64C71.1477 39.64 72.6143 39.9733 73.9477 40.64C75.3077 41.28 76.3743 42.2 77.1477 43.4C77.921 44.5733 78.3077 45.9067 78.3077 47.4V49.56C78.3077 50.2 78.0677 50.7467 77.5877 51.2C77.1077 51.6267 76.4943 51.84 75.7477 51.84H65.6677V52.4C65.6677 53.4667 65.9877 54.3467 66.6277 55.04C67.2943 55.7067 68.2677 56.04 69.5477 56.04C70.801 56.04 71.721 55.7733 72.3077 55.24C72.8943 54.68 73.1877 53.9867 73.1877 53.16C73.721 53.1067 74.121 53.08 74.3877 53.08C75.481 53.08 76.321 53.3067 76.9077 53.76C77.4943 54.2133 77.7877 54.88 77.7877 55.76C77.7877 56.48 77.4277 57.2 76.7077 57.92C75.9877 58.64 74.9877 59.2267 73.7077 59.68C72.4543 60.1333 71.0543 60.36 69.5077 60.36ZM73.3477 47.96V47.4C73.3477 46.3333 72.9877 45.4933 72.2677 44.88C71.5743 44.24 70.6543 43.92 69.5077 43.92C68.361 43.92 67.4277 44.24 66.7077 44.88C66.0143 45.4933 65.6677 46.3333 65.6677 47.4V47.96H73.3477ZM80.6648 43.8C80.6648 42.4667 81.1048 41.44 81.9848 40.72C82.8648 40 84.1715 39.64 85.9048 39.64V42C85.5048 42.4267 85.1715 42.88 84.9048 43.36L85.1848 43.52C85.9848 42.2933 86.9982 41.3467 88.2248 40.68C89.4782 39.9867 90.8648 39.64 92.3848 39.64C93.7182 39.64 94.8915 39.9467 95.9048 40.56C96.9448 41.1733 97.7582 42.0267 98.3448 43.12C98.9315 44.1867 99.2248 45.3867 99.2248 46.72V57.16C99.2248 58.3067 98.7715 59.1333 97.8648 59.64C96.9582 60.12 95.5848 60.36 93.7448 60.36V47.56C93.7448 46.6533 93.4515 45.8933 92.8648 45.28C92.3048 44.6667 91.5048 44.36 90.4648 44.36C89.1848 44.36 88.1448 44.7733 87.3448 45.6C86.5448 46.4267 86.1448 47.4667 86.1448 48.72V57.16C86.1448 58.3067 85.6915 59.1333 84.7848 59.64C83.9048 60.12 82.5315 60.36 80.6648 60.36V43.8ZM108.828 60.36C107.522 60.36 106.295 60.1067 105.148 59.6C104.028 59.0667 103.122 58.3067 102.428 57.32C101.735 56.3067 101.388 55.0933 101.388 53.68C101.388 52.2667 101.762 51.0533 102.508 50.04C103.255 49 104.242 48.2133 105.468 47.68C106.722 47.1467 108.082 46.88 109.548 46.88C110.775 46.88 111.855 47.0667 112.788 47.44C113.748 47.8133 114.642 48.36 115.468 49.08L115.668 48.84C115.108 48.3333 114.668 47.9733 114.348 47.76V47.24C114.348 46.2267 113.975 45.4267 113.228 44.84C112.508 44.2267 111.482 43.92 110.148 43.92C108.975 43.92 107.935 44.1333 107.028 44.56C106.122 44.9867 105.388 45.6133 104.828 46.44C104.188 46.28 103.642 45.9867 103.188 45.56C102.762 45.1067 102.548 44.6133 102.548 44.08C102.548 43.2533 102.908 42.5067 103.628 41.84C104.348 41.1467 105.322 40.6133 106.548 40.24C107.802 39.84 109.175 39.64 110.668 39.64C113.575 39.64 115.815 40.3067 117.388 41.64C118.962 42.9733 119.748 44.7867 119.748 47.08V56.8C119.748 58.0533 119.335 58.96 118.508 59.52C117.708 60.08 116.428 60.36 114.668 60.36V58.8C115.068 58.4267 115.388 58.0933 115.628 57.8L115.428 57.6C114.548 58.5067 113.628 59.2 112.668 59.68C111.708 60.1333 110.428 60.36 108.828 60.36ZM110.348 56.44C111.628 56.44 112.628 56.2 113.348 55.72C114.068 55.24 114.428 54.5467 114.428 53.64C114.428 52.76 114.055 52.0667 113.308 51.56C112.588 51.0533 111.602 50.8 110.348 50.8C109.228 50.8 108.335 51.0533 107.668 51.56C107.028 52.0667 106.708 52.76 106.708 53.64C106.708 54.5467 107.028 55.24 107.668 55.72C108.335 56.2 109.228 56.44 110.348 56.44ZM130.55 60.36C127.83 60.36 125.683 59.9067 124.11 59C122.537 58.0667 121.75 56.8267 121.75 55.28C121.75 54.5867 122.043 54 122.63 53.52C123.243 53.04 124.217 52.8 125.55 52.8C125.763 53.8667 126.297 54.7067 127.15 55.32C128.003 55.9067 129.003 56.2 130.15 56.2C131.483 56.2 132.51 56.04 133.23 55.72C133.977 55.4 134.35 54.9333 134.35 54.32C134.35 53.7867 134.057 53.32 133.47 52.92C132.883 52.52 131.71 52.1067 129.95 51.68C127.897 51.2 126.297 50.72 125.15 50.24C124.03 49.7333 123.203 49.1067 122.67 48.36C122.137 47.6133 121.87 46.6267 121.87 45.4C121.87 43.6667 122.59 42.28 124.03 41.24C125.497 40.1733 127.537 39.64 130.15 39.64C132.71 39.64 134.79 40.08 136.39 40.96C137.99 41.84 138.79 43.0133 138.79 44.48C138.79 45.2267 138.51 45.7733 137.95 46.12C137.39 46.44 136.457 46.6133 135.15 46.64C134.803 45.6267 134.27 44.88 133.55 44.4C132.857 43.8933 131.857 43.64 130.55 43.64C129.617 43.64 128.79 43.8 128.07 44.12C127.35 44.44 126.99 44.8267 126.99 45.28C126.99 45.7867 127.283 46.1867 127.87 46.48C128.483 46.7733 129.497 47.0667 130.91 47.36C133.977 48.0267 136.177 48.9067 137.51 50C138.87 51.0933 139.55 52.5733 139.55 54.44C139.55 55.5867 139.19 56.6133 138.47 57.52C137.75 58.4267 136.71 59.1333 135.35 59.64C133.99 60.12 132.39 60.36 130.55 60.36Z" fill="white"/>
</svg>
