<svg width="48" height="48" viewBox="0 0 48 48" fill="none" xmlns="http://www.w3.org/2000/svg">
<path d="M9.00001 34.54C8.71601 34.54 8.47868 34.4433 8.28801 34.25C8.09735 34.0567 8.00135 33.8187 8.00001 33.536C7.99868 33.2533 8.09468 33.016 8.28801 32.824C8.48135 32.632 8.71868 32.5367 9.00001 32.538H39C39.284 32.538 39.5213 32.634 39.712 32.826C39.904 33.018 40 33.256 40 33.54C40 33.824 39.904 34.0613 39.712 34.252C39.52 34.4427 39.2827 34.538 39 34.538L9.00001 34.54ZM9.00001 25C8.71601 25 8.47868 24.904 8.28801 24.712C8.09735 24.52 8.00135 24.282 8.00001 23.998C7.99868 23.714 8.09468 23.4767 8.28801 23.286C8.48135 23.0953 8.71868 23 9.00001 23H39C39.284 23 39.5213 23.096 39.712 23.288C39.9027 23.48 39.9987 23.718 40 24.002C40.0013 24.286 39.9053 24.5233 39.712 24.714C39.5187 24.9047 39.2813 25 39 25H9.00001ZM9.00001 15.46C8.71601 15.46 8.47868 15.3647 8.28801 15.174C8.09601 14.982 8.00001 14.744 8.00001 14.46C8.00001 14.176 8.09601 13.9387 8.28801 13.748C8.48001 13.5573 8.71735 13.462 9.00001 13.462H39C39.284 13.462 39.5213 13.558 39.712 13.75C39.9027 13.942 39.9987 14.1787 40 14.46C40.0013 14.7413 39.9053 14.9787 39.712 15.172C39.5187 15.3653 39.2813 15.4613 39 15.46H9.00001Z" fill="black"/>
</svg>
