<svg width="37" height="36" viewBox="0 0 37 36" fill="none" xmlns="http://www.w3.org/2000/svg">
<path d="M18.3252 3.00159C16.3554 3.00159 14.4048 3.38957 12.5849 4.14339C10.7651 4.89721 9.11147 6.00211 7.71859 7.39499C4.90555 10.208 3.3252 14.0233 3.3252 18.0016C3.3252 24.6316 7.6302 30.2566 13.5852 32.2516C14.3352 32.3716 14.5752 31.9066 14.5752 31.5016V28.9666C10.4202 29.8666 9.5352 26.9566 9.5352 26.9566C8.8452 25.2166 7.8702 24.7516 7.8702 24.7516C6.5052 23.8216 7.9752 23.8516 7.9752 23.8516C9.4752 23.9566 10.2702 25.3966 10.2702 25.3966C11.5752 27.6766 13.7802 27.0016 14.6352 26.6416C14.7702 25.6666 15.1602 25.0066 15.5802 24.6316C12.2502 24.2566 8.7552 22.9666 8.7552 17.2516C8.7552 15.5866 9.3252 14.2516 10.3002 13.1866C10.1502 12.8116 9.6252 11.2516 10.4502 9.22659C10.4502 9.22659 11.7102 8.82159 14.5752 10.7566C15.7602 10.4266 17.0502 10.2616 18.3252 10.2616C19.6002 10.2616 20.8902 10.4266 22.0752 10.7566C24.9402 8.82159 26.2002 9.22659 26.2002 9.22659C27.0252 11.2516 26.5002 12.8116 26.3502 13.1866C27.3252 14.2516 27.8952 15.5866 27.8952 17.2516C27.8952 22.9816 24.3852 24.2416 21.0402 24.6166C21.5802 25.0816 22.0752 25.9966 22.0752 27.3916V31.5016C22.0752 31.9066 22.3152 32.3866 23.0802 32.2516C29.0352 30.2416 33.3252 24.6316 33.3252 18.0016C33.3252 16.0318 32.9372 14.0812 32.1834 12.2613C31.4296 10.4415 30.3247 8.78786 28.9318 7.39499C27.5389 6.00211 25.8853 4.89721 24.0654 4.14339C22.2456 3.38957 20.295 3.00159 18.3252 3.00159Z" fill="#262626"/>
</svg>
