<svg width="37" height="36" viewBox="0 0 37 36" fill="none" xmlns="http://www.w3.org/2000/svg">
<g clip-path="url(#clip0_112_35)">
<path d="M27.6493 6.08008C28.3565 6.08008 29.0348 6.36103 29.5349 6.86113C30.035 7.36122 30.3159 8.0395 30.3159 8.74674V27.4134C30.3159 28.1207 30.035 28.7989 29.5349 29.299C29.0348 29.7991 28.3565 30.0801 27.6493 30.0801H8.98258C8.27534 30.0801 7.59706 29.7991 7.09697 29.299C6.59687 28.7989 6.31592 28.1207 6.31592 27.4134V8.74674C6.31592 8.0395 6.59687 7.36122 7.09697 6.86113C7.59706 6.36103 8.27534 6.08008 8.98258 6.08008H27.6493ZM26.9826 26.7467V19.6801C26.9826 18.5273 26.5246 17.4217 25.7095 16.6065C24.8943 15.7914 23.7887 15.3334 22.6359 15.3334C21.5026 15.3334 20.1826 16.0267 19.5426 17.0667V15.5867H15.8226V26.7467H19.5426V20.1734C19.5426 19.1467 20.3693 18.3067 21.3959 18.3067C21.891 18.3067 22.3658 18.5034 22.7159 18.8535C23.0659 19.2035 23.2626 19.6783 23.2626 20.1734V26.7467H26.9826ZM11.4893 13.4934C12.0833 13.4934 12.6531 13.2574 13.0732 12.8373C13.4933 12.4172 13.7293 11.8475 13.7293 11.2534C13.7293 10.0134 12.7293 9.00008 11.4893 9.00008C10.8916 9.00008 10.3185 9.23748 9.8959 9.66006C9.47332 10.0826 9.23592 10.6558 9.23592 11.2534C9.23592 12.4934 10.2493 13.4934 11.4893 13.4934ZM13.3426 26.7467V15.5867H9.64925V26.7467H13.3426Z" fill="#262626"/>
</g>
<defs>
<clipPath id="clip0_112_35">
<rect width="24" height="24" fill="white" transform="translate(6.31592 6.08008)"/>
</clipPath>
</defs>
</svg>
