<svg width="37" height="36" viewBox="0 0 37 36" fill="none" xmlns="http://www.w3.org/2000/svg">
<path d="M18.3186 6.75159C12.1931 6.75159 7.07778 11.8761 7.07778 17.9961C7.08013 20.2115 7.73493 22.3771 8.96043 24.2226L7.07227 29.2461L13.3888 28.1037C14.925 28.8498 16.6108 29.2367 18.3186 29.2351C24.4496 29.2388 29.5723 24.1216 29.5723 17.9979C29.5723 11.8816 24.4478 6.74792 18.3186 6.75159Z" stroke="#262626" stroke-width="2.12566" stroke-linecap="round" stroke-linejoin="round"/>
<path d="M18.9374 22.952C20.4601 23.9273 22.0452 23.2165 23.1509 22.3918C23.9132 21.8224 23.8893 20.7258 23.2373 20.0315L21.9515 18.6632C21.4648 19.1499 20.5134 19.3924 19.854 19.1903C18.4342 18.7587 17.8391 18.0203 17.356 17.2673C16.8032 16.404 17.4295 15.1146 17.9162 14.6279L16.4836 13.3201C15.8793 12.7691 14.9627 12.6772 14.4356 13.3017C13.3923 14.5379 12.7458 16.4168 13.5117 17.6126C14.8893 19.7597 16.7903 21.5744 18.9374 22.952Z" stroke="#262626" stroke-width="2.12566" stroke-linecap="round" stroke-linejoin="round"/>
</svg>
