<svg width="48" height="48" viewBox="0 0 48 48" fill="none" xmlns="http://www.w3.org/2000/svg">
<path d="M30 28L34.09 24.934C38.938 21.296 41.084 13.96 40 8C34.038 6.916 26.702 9.062 23.066 13.91L20 18M30 28L23 33L15 25L20 18M30 28V33.334C30 35.065 29.4386 36.7492 28.4 38.134L27 40L25 38M20 18H14.666C12.935 18 11.2508 18.5614 9.866 19.6L8 21L10 23M17 36L10 38L12.332 31M31 19C31.5304 19 32.0391 18.7893 32.4142 18.4142C32.7893 18.0391 33 17.5304 33 17C33 16.4696 32.7893 15.9609 32.4142 15.5858C32.0391 15.2107 31.5304 15 31 15C30.4696 15 29.9609 15.2107 29.5858 15.5858C29.2107 15.9609 29 16.4696 29 17C29 17.5304 29.2107 18.0391 29.5858 18.4142C29.9609 18.7893 30.4696 19 31 19Z" stroke="#1973E8" stroke-width="4" stroke-linecap="round" stroke-linejoin="round"/>
</svg>
