<svg width="49" height="48" viewBox="0 0 49 48" fill="none" xmlns="http://www.w3.org/2000/svg">
<path d="M10.0313 6C9.93181 6 9.83643 6.03951 9.7661 6.10983C9.69578 6.18016 9.65627 6.27554 9.65627 6.375V26.625C9.65627 26.832 9.82427 27 10.0313 27H39.2918C39.3912 27 39.4866 26.9605 39.5569 26.8902C39.6273 26.8198 39.6668 26.7245 39.6668 26.625V6.375C39.6668 6.27554 39.6273 6.18016 39.5569 6.10983C39.4866 6.03951 39.3912 6 39.2918 6H10.0313ZM40.0703 31.92L41.1503 36.795C41.1681 36.8779 41.1673 36.9638 41.1477 37.0464C41.1281 37.129 41.0904 37.2061 41.0372 37.2723C40.984 37.3384 40.9168 37.3918 40.8403 37.4286C40.7638 37.4654 40.6801 37.4847 40.5953 37.485H8.72627C8.36627 37.485 8.09627 37.14 8.17127 36.795L9.25127 31.92C9.31127 31.665 9.53627 31.485 9.80627 31.485H39.5168C39.7868 31.485 40.0118 31.665 40.0718 31.92M16.8893 41.985H32.4323C32.6723 41.985 32.8523 41.76 32.7923 41.52L32.2223 39.27C32.2012 39.1899 32.1547 39.1189 32.0898 39.0675C32.0249 39.0161 31.945 38.9871 31.8623 38.985H17.4593C17.2943 38.985 17.1443 39.105 17.0993 39.27L16.5293 41.52C16.4693 41.76 16.6493 41.985 16.8893 41.985Z" fill="#1973E8"/>
<path d="M47.1155 43.0275L44.1665 29.1V4.5C44.1665 4.10591 44.0889 3.71568 43.938 3.3516C43.7872 2.98753 43.5661 2.65674 43.2873 2.37815C43.0086 2.09955 42.6777 1.87861 42.3135 1.72793C41.9494 1.57726 41.5591 1.4998 41.165 1.5H8.15603C7.36038 1.5 6.59732 1.81607 6.03471 2.37868C5.4721 2.94129 5.15603 3.70435 5.15603 4.5V29.1L2.21753 43.0275C2.17984 43.2282 2.16275 43.4323 2.16653 43.6365C2.16692 44.3943 2.4675 45.121 3.00248 45.6577C3.53746 46.1944 4.26326 46.4972 5.02103 46.5H44.3015C45.0606 46.4984 45.7882 46.1963 46.3251 45.6596C46.862 45.123 47.1646 44.3956 47.1665 43.6365C47.1665 43.4415 47.1575 43.218 47.1155 43.0275ZM41.165 4.5V28.5H8.15603V4.5H41.165ZM44.138 43.5H5.18153L8.03003 30H41.2895L44.138 43.5Z" fill="#1973E8"/>
</svg>
