<svg width="49" height="48" viewBox="0 0 49 48" fill="none" xmlns="http://www.w3.org/2000/svg">
<path d="M24.3335 5.08875C12.652 5.08875 3.146 14.5948 3.146 26.2762C3.146 30.7635 4.5499 34.9287 6.93959 38.3584L9.7324 36.4965C8.08224 34.1414 7.0302 31.42 6.66715 28.5674H9.3335V26.8799H6.53178C6.52521 26.6793 6.521 26.4783 6.521 26.2762C6.521 22.022 8.00375 18.1227 10.4806 15.0638L12.1119 16.6951L13.305 15.5019L11.6051 13.8021C14.6524 10.6928 18.8337 8.7 23.4897 8.48418V11.2236H25.1772V8.48437C29.8333 8.70018 34.0146 10.6931 37.0619 13.8023L35.362 15.5022L36.555 16.6954L38.1863 15.0641C40.6632 18.1232 42.146 22.0222 42.146 26.2766C42.146 26.4786 42.1419 26.6797 42.1352 26.8801H39.3335V28.5676H41.9997C41.6367 31.4202 40.5848 34.1415 38.9347 36.4965L41.7275 38.3584C44.1171 34.9288 45.521 30.7637 45.521 26.2764C45.521 14.595 36.015 5.08893 24.3335 5.08893V5.08875ZM25.8176 11.2978C27.5091 12.2309 29.0056 13.5479 30.2105 15.1638C31.4153 16.7796 32.3016 18.6584 32.8121 20.6786L37.4964 19.0316C37.3677 18.8091 37.2332 18.5899 37.0932 18.3742L36.6118 18.8573L33.7648 16.0177L33.2248 15.479L33.9608 14.7408C31.6539 12.801 28.8162 11.6012 25.8175 11.2977L25.8176 11.2978ZM40.4566 19.7207L24.0192 25.4019C22.8808 25.5579 21.9897 26.5458 21.9897 27.7237C21.9897 29.0081 23.0491 30.0675 24.3335 30.0675C24.9682 30.0675 25.5476 29.8084 25.9716 29.3917L40.4566 19.7207ZM38.9085 22.7509L33.2167 26.5684C32.9924 28.5706 32.4068 30.502 31.4951 32.2469C30.5834 33.9919 29.3641 35.5145 27.9104 36.7237H35.0408C36.8029 34.9274 38.0848 32.7167 38.7686 30.295H37.691V25.3717H39.2868C39.2382 24.4886 39.1116 23.6117 38.9085 22.7509ZM12.3335 39.5362V42.9112H36.3335V39.5362H12.3335Z" fill="#1973E8"/>
</svg>
