<svg width="49" height="48" viewBox="0 0 49 48" fill="none" xmlns="http://www.w3.org/2000/svg">
<path d="M42.6665 22C42.6665 33.1 34.9865 43.48 24.6665 46C14.3465 43.48 6.6665 33.1 6.6665 22V10L24.6665 2L42.6665 10V22ZM24.6665 42C32.1665 40 38.6665 31.08 38.6665 22.44V12.6L24.6665 6.36L10.6665 12.6V22.44C10.6665 31.08 17.1665 40 24.6665 42ZM30.2665 22V19C30.2665 16.2 27.4665 14 24.6665 14C21.8665 14 19.0665 16.2 19.0665 19V22C17.8665 22 16.6665 23.2 16.6665 24.4V31.4C16.6665 32.8 17.8665 34 19.0665 34H30.0665C31.4665 34 32.6665 32.8 32.6665 31.6V24.6C32.6665 23.2 31.4665 22 30.2665 22ZM27.6665 22H21.6665V19C21.6665 17.4 23.0665 16.4 24.6665 16.4C26.2665 16.4 27.6665 17.4 27.6665 19V22Z" fill="#1973E8"/>
</svg>
