<svg width="48" height="48" viewBox="0 0 48 48" fill="none" xmlns="http://www.w3.org/2000/svg">
<path d="M33 24C33 22.64 32.88 21.32 32.72 20H39.48C39.8 21.28 40 22.62 40 24C40 24.74 39.94 25.46 39.84 26.16C41.22 26.36 42.5 26.8 43.68 27.44C43.88 26.32 44 25.18 44 24C44 13 35 4 24 4C12.94 4 4 13 4 24C4 35 13 44 24 44C25.18 44 26.32 43.88 27.44 43.68C26.4901 41.9379 25.9948 39.9843 26 38C26 37.42 26.06 36.86 26.14 36.3C25.5 37.56 24.8 38.78 24 39.92C22.34 37.52 21 34.86 20.18 32H27.62C28.8212 29.9127 30.6274 28.239 32.8 27.2C32.92 26.14 33 25.08 33 24ZM24 8.06C25.66 10.46 27 13.14 27.82 16H20.18C21 13.14 22.34 10.46 24 8.06ZM8.52 28C8.2 26.72 8 25.38 8 24C8 22.62 8.2 21.28 8.52 20H15.28C15.12 21.32 15 22.64 15 24C15 25.36 15.12 26.68 15.28 28H8.52ZM10.16 32H16C16.7 34.5 17.6 36.9 18.8 39.12C15.1565 37.8646 12.0886 35.3364 10.16 32ZM16 16H10.16C12.0773 12.6541 15.1493 10.1225 18.8 8.88C17.6 11.1 16.7 13.5 16 16ZM28.68 28H19.32C19.12 26.68 19 25.36 19 24C19 22.64 19.12 21.3 19.32 20H28.68C28.86 21.3 29 22.64 29 24C29 25.36 28.86 26.68 28.68 28ZM29.18 8.88C32.86 10.14 35.92 12.68 37.84 16H31.94C31.3131 13.5232 30.3862 11.1322 29.18 8.88ZM45 34.5L35.5 44L30 38L32.32 35.68L35.5 38.86L42.68 31.68L45 34.5Z" fill="#1973E8"/>
</svg>
